<?xml version="1.0" standalone="no"?>
<!DOCTYPE svg PUBLIC "-//W3C//DTD SVG 20010904//EN"
 "http://www.w3.org/TR/2001/REC-SVG-20010904/DTD/svg10.dtd">
<svg version="1.0" xmlns="http://www.w3.org/2000/svg"
 width="260.000000pt" height="260.000000pt" viewBox="0 0 260.000000 260.000000"
 preserveAspectRatio="xMidYMid meet">
<metadata>
Created by potrace 1.11, written by Peter Selinger 2001-2013
</metadata>
<g transform="translate(0.000000,260.000000) scale(0.100000,-0.100000)"
fill="#000000" stroke="none">
<path d="M955 2205 l0 -395 -25 -1 c-14 0 -121 0 -237 1 -169 1 -213 -2 -214
-12 0 -7 -1 -185 -1 -395 -1 -344 -3 -383 -17 -384 -9 -1 -115 -2 -236 -3
l-220 -1 -3 -508 -2 -507 1300 0 1300 0 0 508 0 507 -231 0 c-127 0 -234 2
-239 5 -4 3 -7 172 -8 375 0 204 -1 380 -1 391 -1 21 -4 22 -203 22 -112 0
-219 1 -238 1 l-36 1 0 393 0 392 -344 3 -345 2 0 -395z m477 173 c2 -7 3
-185 2 -395 l-1 -383 26 -1 c14 0 122 -1 239 -1 l212 -1 0 -393 c0 -308 3
-394 13 -395 6 -1 113 -2 237 -3 l225 -1 3 -298 2 -297 -1090 0 -1090 0 2 297
3 298 235 0 235 0 3 396 2 397 228 0 c125 0 232 1 238 1 7 1 10 120 9 384 0
210 1 388 3 395 3 9 38 12 132 12 94 0 129 -3 132 -12z"/>
</g>
</svg>
